# xmcd
#
# Track frame offsets:
#	182
#	28102
#	43875
#	59295
#	78995
#	86517
#	118410
#	138080
#	152397
#	171467
#	182545
#	209927
#	229480
#	251970
#	283407
#
# Disc length: 3875 seconds
#
# Revision: 2
# Processed by: cddbd v1.5.1PL0 Copyright (c) Steve Scherf et al.
# Submitted via: audiograbber 1.82.01
#
DISCID=e50f210f
DTITLE=Monografie - 25 Eros E Musica
DYEAR=1900
DGENRE=New Age
TTITLE0=Eylin De Winter - S.H.E.
TTITLE1=Software - Rubber-Man
TTITLE2=Novecento - To Love
TTITLE3=Colour Club - I Wanna Be With You
TTITLE4=Rodney franklin - Love's Way
TTITLE5=Mark-Almond - Nightmusic
TTITLE6=Free Flying - Sexual  Soul
TTITLE7=Software - Two Hearts
TTITLE8=Religion Mystique - Qu'Est-Ce Que C'Est?
TTITLE9=James Perry - Can You Hear Me? Part II
TTITLE10=Mysia - Starship
TTITLE11=Scott Mayo - Revelations
TTITLE12=Atmosphere - Smooothing
TTITLE13=Flesh and Bone - Making Of Love
TTITLE14=David Downes - Shadow  Of Cloud
EXTD=
EXTT0=
EXTT1=
EXTT2=
EXTT3=
EXTT4=
EXTT5=
EXTT6=
EXTT7=
EXTT8=
EXTT9=
EXTT10=
EXTT11=
EXTT12=
EXTT13=
EXTT14=
PLAYORDER=
